<svg viewBox="0 0 1500 1500" xmlns="http://www.w3.org/2000/svg" style="fill-rule:evenodd;clip-rule:evenodd">
  <g transform="matrix(6.62176,0.731212,-0.731212,6.62176,73.6186,-1850.38)">
    <path d="M147.856,383.731L178.475,425.081L133.436,472.895L119.557,436.868L102.943,428.56L147.856,383.731Z" fill="white"/>
  </g>
  <g transform="matrix(8.2178,0.907456,-0.907456,8.2178,-990.737,-5356.61)">
    <path d="M229.071,685.114L233.337,700.709L243.797,713.669L240.335,727.207L254.778,751.519L268.452,759.259L279.439,787.442L315.64,748.188L322.514,725.782L340.162,718.226L345.888,685.345L229.071,685.114Z" fill="rgb(41,51,92)" stroke="rgb(41,51,92)" stroke-width="9.68"/>
  </g>
  <g transform="matrix(8.2178,0.907456,-0.907456,8.2178,-969.646,-5345.95)">
    <path d="M226.394,684.113L242.718,667.85L252.891,664.064L253.352,652.581L281.853,634.183L290.499,646.857L304.54,651.136L343.211,684.113" fill="none" stroke="rgb(41,51,92)" stroke-width="9.68" stroke-linecap="round" stroke-linejoin="round"/>
  </g>
</svg>
